<?xml version="1.0" encoding="UTF-8" standalone="no"?>
<!-- Created with Inkscape (http://www.inkscape.org/) -->

<svg
   width="26.80851mm"
   height="18.514839mm"
   viewBox="0 0 26.80851 18.514839"
   version="1.1"
   id="svg1"
   inkscape:version="1.3.2 (091e20e, 2023-11-25, custom)"
   sodipodi:docname="network asset.svg"
   xml:space="preserve"
   xmlns:inkscape="http://www.inkscape.org/namespaces/inkscape"
   xmlns:sodipodi="http://sodipodi.sourceforge.net/DTD/sodipodi-0.dtd"
   xmlns="http://www.w3.org/2000/svg"
   xmlns:svg="http://www.w3.org/2000/svg"
   xmlns:rdf="http://www.w3.org/1999/02/22-rdf-syntax-ns#"
   xmlns:cc="http://creativecommons.org/ns#"
   xmlns:dc="http://purl.org/dc/elements/1.1/"><sodipodi:namedview
     id="namedview1"
     pagecolor="#ffffff"
     bordercolor="#cccccc"
     borderopacity="1"
     inkscape:showpageshadow="0"
     inkscape:pageopacity="1"
     inkscape:pagecheckerboard="0"
     inkscape:deskcolor="#d1d1d1"
     inkscape:document-units="mm"
     inkscape:zoom="0.36213173"
     inkscape:cx="1372.4288"
     inkscape:cy="661.36155"
     inkscape:window-width="1920"
     inkscape:window-height="1009"
     inkscape:window-x="-8"
     inkscape:window-y="-8"
     inkscape:window-maximized="1"
     inkscape:current-layer="layer1"
     showguides="true" /><defs
     id="defs1" /><g
     inkscape:label="Layer 1"
     inkscape:groupmode="layer"
     id="layer1"
     transform="translate(-276.95156,-199.24762)"><g
       id="g27"><g
         id="g26"
         style="fill:#b2a3ee;fill-opacity:1;stroke:#7254ed;stroke-opacity:1"><path
           id="path5"
           style="fill:#b2a3ee;fill-opacity:1;stroke:#7254ed;stroke-width:1.93626;stroke-linecap:round;stroke-linejoin:round;stroke-dashoffset:24.44;stroke-opacity:1"
           d="m 290.30602,200.21699 a 8.2891937,8.2891937 0 0 1 8.28867,8.28991 8.2891937,8.2891937 0 0 1 -0.009,0.11884 4.0893356,4.0893356 0 0 1 0.11758,-0.01 4.0893356,4.0893356 0 0 1 4.08867,4.08992 4.0893356,4.0893356 0 0 1 -4.08867,4.08867 h -8.39748 -7.21303 a 5.1732987,5.1732987 0 0 1 -5.17307,-5.17307 5.1732987,5.1732987 0 0 1 4.33757,-5.09928 8.2891937,8.2891937 0 0 1 8.04853,-6.30623 z" /></g></g></g><metadata
     id="metadata154"><rdf:RDF><cc:Work
         rdf:about=""><dc:creator><cc:Agent><dc:title>jg.vectordesign@gmail.com</dc:title></cc:Agent></dc:creator></cc:Work></rdf:RDF></metadata></svg>
